<?xml version="1.0" encoding="UTF-8"?><svg id="Layer_1" xmlns="http://www.w3.org/2000/svg" viewBox="0 0 731 734.79"><defs><style>.cls-1{fill:#000;}.cls-1,.cls-2,.cls-3{stroke-width:0px;}.cls-2{fill:#0d1821;}.cls-4{font-family:BrushScriptMT, 'Brush Script MT';font-size:93.68px;}.cls-4,.cls-5{fill:#aa78a6;stroke:#000;stroke-miterlimit:10;}.cls-3{fill:#74d6ff;}</style></defs><ellipse class="cls-2" cx="365.5" cy="367.4" rx="365.5" ry="367.4"/><polygon class="cls-3" points="365.5 507.29 150.43 663.54 232.58 410.71 17.5 254.45 283.35 254.45 365.5 1.62 447.65 254.45 713.5 254.45 498.42 410.71 580.57 663.54 365.5 507.29"/><path class="cls-1" d="M365.5,3.24l81.56,251.02.22.69h264.67l-213.53,155.14-.59.43.22.69,81.56,251.02-213.53-155.14-.59-.43-.59.43-213.53,155.14,81.56-251.02.22-.69-.59-.43L19.04,254.95h264.67l.22-.69L365.5,3.24M365.5,0l-82.51,253.95H15.97l216.02,156.95-82.51,253.95,216.02-156.95,216.02,156.95-82.51-253.95,216.02-156.95h-267.02L365.5,0h0Z"/><text class="cls-4" transform="translate(148.38 316.66)"><tspan x="0" y="0">Adam Nardin</tspan></text><path class="cls-5" d="M241.19,403.29c1.71,8.15,2.56,12.23,4.26,20.38.81,3.86,1.55,6.7,2.23,8.51.68,1.81,1.53,3.25,2.55,4.3.89.92,1.82,1.55,2.8,1.89.98.33,2.2.42,3.65.25.1.52.15.79.25,1.31-9.45,1.84-14.16,2.86-23.54,5.11-.12-.52-.19-.78-.31-1.3,1.4-.45,2.47-1.03,3.23-1.74.75-.71,1.34-1.68,1.77-2.88.5-1.38.7-3.03.56-4.94-.14-1.91-.65-4.81-1.52-8.69-3.12-13.9-6.24-27.8-9.36-41.71-.73-3.24-1.39-5.72-1.99-7.43-.6-1.71-1.27-3.07-2.02-4.03-1.04-1.34-2.24-2.26-3.52-2.73-1.28-.48-2.84-.58-4.65-.31-.12.03-.18.04-.29.07-.12-.52-.19-.78-.31-1.3,10.1-2.42,15.16-3.52,25.32-5.52,4.44-.87,7.77-1.17,9.99-.94,2.22.23,4.36,1.11,6.41,2.64,4.68,3.43,7.52,8.62,8.63,15.49,1.13,6.98.01,12.41-3.26,16.3-1.71,2.02-3.94,3.45-6.69,4.31-.88.28-3.03.73-6.45,1.4-3.1.61-4.65.92-7.74,1.57ZM240.81,401.47c1.55-.32,2.33-.48,3.88-.8,2.61-.53,4.57-1.19,5.88-2.02,1.31-.82,2.39-2.08,3.23-3.77,1.98-3.87,2.51-8.61,1.5-14.24-.56-3.12-1.46-5.92-2.72-8.38-1.26-2.46-2.8-4.38-4.56-5.74-2.06-1.6-4.31-2.38-6.73-2.26-.66.05-2.14.3-4.43.77-1.41.29-2.12.43-3.52.73l7.47,35.71Z"/><path class="cls-5" d="M273.8,412.13c-.97-6.19-.28-11.96,2.2-17.29,3-6.46,7.34-10.08,12.84-10.76,5.49-.68,10.57,1.76,15.03,7.29,3.7,4.59,5.79,10.04,6.37,16.28.57,6.16-.4,11.78-2.79,16.88-2.94,6.27-6.98,9.71-12.29,10.37-5.31.66-10.08-1.67-14.5-7.03-1.72-2.09-3.18-4.49-4.37-7.2-1.19-2.71-2.02-5.56-2.49-8.54ZM280.76,410.41c.96,6.65,2.77,12.16,5.38,16.5,2.92,4.86,5.93,7.09,9.09,6.69,1.34-.17,2.58-.9,3.71-2.2,1.14-1.3,2.05-3.05,2.76-5.21.73-2.25,1.25-5.04,1.51-8.35.27-3.31.25-6.48-.07-9.52-.33-3.15-1-6.29-2.01-9.43-1.02-3.13-2.23-5.79-3.63-7.97-2.68-4.09-5.66-5.94-8.87-5.54-3.05.38-5.38,3.03-6.95,7.87-1.57,4.85-1.86,10.58-.92,17.15Z"/><path class="cls-5" d="M323.72,389.68c.8-2.49,1.77-4.4,2.91-5.71,2.1-2.41,4.61-3.7,7.49-3.85,1.77-.09,3.14.42,4.11,1.49.88.97,1.35,2.19,1.41,3.65.04,1.08-.17,1.98-.63,2.7-.47.72-1.09,1.09-1.86,1.13-.91.04-1.73-.46-2.45-1.51-.54-.76-.81-1.14-1.35-1.9-1.07-1.45-2.29-2.14-3.65-2.06-1.84.11-3.17,1.89-3.97,5.35-.8,3.46-.98,8.21-.58,14.26.29,4.32.44,6.48.73,10.81.13,1.76.2,2.63.33,4.39.18,2.62.41,4.53.69,5.73.28,1.2.76,2.19,1.37,2.96.77.97,2.11,1.7,4.02,2.13.03.49.04.73.07,1.22-6.62.38-9.93.62-16.54,1.2-.04-.49-.06-.73-.11-1.21,1.47-.44,2.51-.96,3.12-1.56.61-.61,1.05-1.61,1.35-2.97.2-.9.3-2.25.28-4.04s-.17-4.38-.43-7.75c-.44-5.68-.66-8.53-1.1-14.21-.3-3.95-.58-6.72-.84-8.3-.26-1.58-.67-2.86-1.19-3.81-.55-1.02-1.16-1.77-1.84-2.2-.69-.43-1.64-.65-2.87-.66-.04-.49-.06-.73-.1-1.21,4.11-1.19,6.17-1.77,10.32-2.9.71,3.43,1.14,6.38,1.31,8.86Z"/><path class="cls-5" d="M351.07,380.38c4.14-.09,6.21-.12,10.35-.14,0,.88,0,1.32.01,2.2-4.13.02-6.19.05-10.31.14.25,11.25.5,22.5.76,33.75.09,4.06.61,6.95,1.55,8.67.5.96,1.14,1.7,1.92,2.23.78.53,1.62.79,2.52.77,1.12-.01,2.06-.38,2.8-1.1.75-.72,1.56-2.03,2.47-3.93.23.3.34.45.57.75-.83,2.32-1.98,4.05-3.46,5.18-1.48,1.13-3.32,1.71-5.54,1.75-2.94.05-5.11-.78-6.51-2.51-.75-.91-1.27-2-1.53-3.29-.27-1.29-.46-3.61-.57-6.97-.38-11.71-.76-23.42-1.14-35.13-1.74.06-2.61.09-4.34.16-.01-.37-.02-.56-.04-.93,1.73-.88,3.3-2.5,4.73-4.87.86-1.46,1.55-2.9,2.07-4.33.51-1.43.99-3.27,1.44-5.52.15-.77.22-1.15.37-1.92.62-.02.93-.02,1.56-.04.14,6.03.2,9.04.34,15.07Z"/><path class="cls-5" d="M374.3,382.51c-.16,10.1-.31,20.19-.47,30.29-.01,1.76-.02,2.64-.03,4.4-.04,2.63.03,4.55.21,5.77.18,1.22.58,2.24,1.12,3.06.69,1.03,1.96,1.87,3.82,2.46-.01.49-.02.73-.03,1.22-6.63-.17-9.94-.2-16.57-.17,0-.49,0-.73,0-1.22,1.5-.31,2.58-.75,3.23-1.31.65-.56,1.18-1.52,1.59-2.86.27-.88.48-2.23.61-4.02.12-1.79.2-4.39.21-7.79.05-9.96.11-19.93.16-29.89-2.36-.01-3.53-.01-5.89,0,0-.88,0-1.32,0-2.2,2.36,0,3.55,0,5.91,0,.03-5.66.05-8.49.08-14.15.02-3.4.35-6.09,1-8.06s1.81-3.79,3.49-5.42c1.49-1.45,3.34-2.57,5.52-3.36,2.17-.79,4.47-1.14,6.87-1.07,2.23.07,4,.66,5.3,1.76,1.3,1.1,1.91,2.52,1.83,4.26-.05,1.16-.37,2.11-.95,2.86-.58.75-1.27,1.11-2.06,1.08-.76-.03-1.41-.33-1.95-.91-.54-.58-1.08-1.52-1.6-2.81-.73-1.8-1.35-2.99-1.85-3.57-.5-.58-1.19-.88-2.07-.9-1.08-.03-2.12.25-3.1.82-.98.58-1.75,1.35-2.31,2.3-.62,1.07-1.05,2.49-1.3,4.24-.25,1.76-.4,4.29-.46,7.62-.1,6.15-.14,9.22-.24,15.37,3.21.05,4.82.09,8.03.18-.03.88-.04,1.32-.06,2.2-3.22-.09-4.82-.13-8.04-.18Z"/><path class="cls-5" d="M386,405.43c.23-6.26,1.99-11.8,5.43-16.56,4.17-5.77,9.11-8.5,14.62-8.13,5.51.37,10.04,3.73,13.37,10.01,2.77,5.21,3.78,10.96,3.16,17.19-.61,6.16-2.63,11.49-5.94,16.04-4.08,5.6-8.69,8.21-14.02,7.85-5.33-.36-9.57-3.55-12.88-9.66-1.29-2.38-2.27-5.01-2.92-7.9-.65-2.89-.93-5.84-.82-8.85ZM393.14,405.07c-.32,6.71.41,12.46,2.14,17.22,1.94,5.32,4.47,8.08,7.64,8.3,1.35.09,2.7-.39,4.06-1.45,1.36-1.06,2.59-2.6,3.69-4.6,1.15-2.07,2.18-4.71,3.07-7.91.89-3.2,1.47-6.32,1.74-9.36.27-3.16.22-6.37-.19-9.64-.4-3.27-1.09-6.11-2.05-8.51-1.85-4.53-4.42-6.91-7.65-7.12-3.06-.2-5.85,1.95-8.3,6.41-2.46,4.47-3.83,10.03-4.15,16.67Z"/><path class="cls-5" d="M432.22,353.67c4.99-.31,7.49-.45,12.51-.66-2.67,21.39-5.33,42.79-8,64.18-.2,1.75-.3,2.63-.51,4.38-.33,2.61-.46,4.53-.41,5.76.05,1.23.33,2.29.78,3.17.58,1.1,1.75,2.07,3.54,2.86-.06.48-.1.72-.16,1.21-6.58-.88-9.88-1.28-16.48-1.97.05-.48.08-.73.13-1.21,1.53-.15,2.65-.46,3.36-.95.71-.49,1.34-1.39,1.9-2.67.37-.85.72-2.16,1.04-3.93.32-1.77.67-4.34,1.06-7.72l5.17-45.17c.45-3.91.69-6.68.74-8.31.04-1.63-.14-2.98-.48-4.02-.37-1.11-.85-1.96-1.48-2.5-.63-.53-1.57-.93-2.84-1.18.05-.51.08-.76.13-1.27Z"/><path class="cls-5" d="M449.01,387.26c4.77-.18,7.16-.25,11.95-.34-1.74,11-3.48,22-5.22,32.99-.26,1.74-.39,2.61-.65,4.34-.41,2.59-.61,4.5-.6,5.73.01,1.23.26,2.3.68,3.18.54,1.12,1.68,2.13,3.45,2.97-.08.48-.12.72-.2,1.2-6.56-1.1-9.84-1.6-16.42-2.51.07-.48.1-.72.17-1.21,1.53-.1,2.66-.37,3.39-.83.73-.46,1.38-1.34,1.98-2.6.4-.83.79-2.13,1.17-3.88.38-1.75.81-4.3,1.31-7.65.83-5.64,1.25-8.46,2.09-14.1.58-3.92.92-6.68,1.02-8.28.1-1.6-.02-2.94-.31-3.98-.31-1.11-.74-1.98-1.31-2.55-.58-.57-1.46-1-2.65-1.28.07-.48.1-.72.17-1.21ZM460.88,365.84c-1.09-.17-1.93-.78-2.5-1.84-.57-1.06-.76-2.32-.55-3.77.21-1.41.75-2.56,1.64-3.42.88-.87,1.87-1.22,2.95-1.05,1.08.17,1.92.8,2.51,1.89.59,1.09.76,2.34.54,3.75-.23,1.45-.78,2.6-1.65,3.44-.87.84-1.84,1.18-2.94,1.01Z"/><path class="cls-5" d="M465.88,413.78c1.07-6.17,3.59-11.42,7.65-15.66,4.93-5.15,10.21-7.18,15.65-6.06,5.44,1.12,9.48,5.08,11.95,11.75,2.05,5.54,2.27,11.38.82,17.47-1.44,6.02-4.18,11.02-8.09,15.08-4.82,4.99-9.77,6.94-15.03,5.85-5.26-1.09-9.04-4.83-11.5-11.33-.96-2.53-1.57-5.27-1.83-8.22-.25-2.95-.13-5.91.39-8.88ZM473.03,414.4c-1.23,6.61-1.28,12.4-.21,17.35,1.2,5.54,3.34,8.62,6.47,9.27,1.33.27,2.74-.02,4.24-.88,1.5-.86,2.93-2.22,4.3-4.05,1.42-1.9,2.81-4.37,4.13-7.42,1.32-3.05,2.32-6.06,3-9.03.7-3.09,1.08-6.28,1.12-9.57.04-3.29-.25-6.2-.89-8.71-1.23-4.74-3.46-7.45-6.65-8.11-3.02-.62-6.09,1.13-9.13,5.21-3.05,4.09-5.17,9.42-6.39,15.95Z"/></svg>