<?xml version="1.0" standalone="no"?>
<!DOCTYPE svg PUBLIC "-//W3C//DTD SVG 20010904//EN"
 "http://www.w3.org/TR/2001/REC-SVG-20010904/DTD/svg10.dtd">
<svg version="1.0" xmlns="http://www.w3.org/2000/svg"
 width="735.000000pt" height="735.000000pt" viewBox="0 0 735.000000 735.000000"
 preserveAspectRatio="xMidYMid meet">
<metadata>
Created by potrace 1.14, written by Peter Selinger 2001-2017
</metadata>
<g transform="translate(0.000000,735.000000) scale(0.100000,-0.100000)"
fill="#000000" stroke="none">
<path d="M3449 7346 c-2 -2 -42 -7 -89 -10 -47 -4 -98 -9 -115 -11 -16 -3 -46
-7 -65 -9 -38 -4 -199 -32 -240 -41 -14 -4 -36 -8 -50 -11 -45 -9 -185 -45
-200 -51 -8 -3 -19 -7 -25 -7 -5 -1 -37 -10 -70 -20 -33 -10 -61 -17 -63 -17
-1 1 -16 -6 -32 -14 -16 -8 -32 -15 -35 -15 -6 -1 -11 -2 -122 -44 -131 -50
-278 -119 -443 -208 -65 -36 -275 -167 -305 -191 -5 -4 -44 -32 -85 -62 -68
-50 -110 -83 -160 -125 -10 -8 -42 -35 -71 -60 -69 -58 -289 -278 -355 -355
-61 -71 -160 -196 -194 -245 -13 -19 -27 -37 -30 -40 -13 -12 -140 -210 -140
-220 0 -5 -4 -10 -10 -10 -5 0 -10 -4 -10 -9 0 -5 -19 -42 -42 -83 -24 -40
-52 -91 -63 -113 -11 -22 -24 -43 -30 -47 -5 -4 -7 -8 -3 -8 4 0 -6 -26 -23
-57 -17 -32 -31 -59 -30 -60 0 -2 -11 -29 -25 -60 -31 -72 -124 -317 -135
-358 -4 -16 -22 -82 -39 -145 -33 -118 -36 -133 -46 -185 -3 -16 -9 -48 -15
-70 -5 -22 -12 -58 -15 -80 -3 -22 -7 -47 -8 -55 -2 -8 -6 -42 -11 -75 -4 -33
-9 -69 -11 -80 -12 -61 -19 -226 -19 -425 0 -266 8 -373 41 -570 8 -47 17
-101 20 -120 2 -19 7 -44 11 -55 4 -11 8 -27 9 -35 5 -30 15 -76 26 -115 13
-46 14 -51 21 -85 3 -14 20 -70 38 -125 18 -55 34 -104 35 -110 7 -30 119
-297 163 -386 80 -164 201 -379 213 -379 5 0 8 -7 8 -15 0 -8 5 -15 10 -15 6
0 10 -5 10 -10 0 -16 176 -259 233 -322 12 -14 47 -54 77 -89 60 -71 260 -270
336 -336 88 -76 98 -84 194 -156 52 -40 97 -75 98 -79 2 -5 8 -8 14 -8 5 0 24
-11 42 -25 37 -28 206 -135 213 -135 3 0 17 -8 31 -19 87 -61 546 -268 612
-276 3 0 10 -3 15 -7 26 -16 290 -89 449 -124 18 -4 200 -34 301 -50 78 -12
190 -16 415 -18 291 -1 438 10 650 51 19 3 38 6 41 5 4 -1 22 3 40 9 19 5 48
12 64 15 26 4 45 9 125 28 8 2 35 10 60 17 25 7 50 13 56 15 38 7 300 101 391
140 123 52 377 178 393 194 3 3 27 17 53 30 26 14 57 33 68 43 10 10 19 16 19
13 0 -8 134 85 138 95 2 5 9 9 14 9 9 0 51 29 138 97 59 46 149 121 167 140
12 13 25 23 28 23 14 0 306 303 380 395 22 28 46 56 53 64 12 13 66 87 155
213 15 21 27 41 27 44 0 3 9 14 20 26 11 12 20 28 20 35 0 7 5 13 10 13 6 0
10 4 10 8 0 5 22 47 50 93 27 46 50 89 50 96 0 6 4 13 8 15 9 3 112 213 112
228 0 6 5 10 10 10 6 0 10 6 10 14 0 7 10 35 22 62 12 27 23 51 23 54 1 3 7
18 13 33 7 16 12 34 12 41 0 6 4 16 9 22 8 9 87 248 95 289 3 11 16 63 30 115
14 52 27 112 28 132 2 21 6 38 10 38 5 0 7 3 6 8 -2 6 7 70 17 120 1 10 6 40
9 67 4 28 9 66 11 85 14 106 18 200 18 430 1 232 -3 318 -18 420 -3 19 -7 53
-10 75 -9 76 -14 107 -19 124 -3 9 -8 34 -11 56 -3 23 -7 50 -10 60 -4 20 -29
129 -45 195 -6 29 -29 109 -57 200 -2 8 -4 16 -3 18 0 1 -7 16 -15 32 -8 16
-16 33 -16 37 -11 75 -251 598 -281 611 -5 2 -8 9 -8 15 0 24 -228 363 -302
449 -13 14 -34 41 -48 58 -85 107 -440 468 -440 447 0 -3 -13 7 -28 21 -56 54
-257 204 -337 252 -22 13 -43 29 -47 34 -4 6 -8 8 -8 4 0 -4 -9 0 -20 10 -22
18 -120 75 -160 93 -13 5 -27 14 -30 18 -3 4 -32 19 -65 35 -33 15 -67 32 -75
37 -8 5 -26 14 -40 21 -98 45 -151 68 -158 68 -4 1 -25 9 -47 20 -22 11 -45
19 -52 20 -7 0 -29 7 -50 16 -59 26 -73 31 -143 52 -77 24 -253 72 -284 78
-11 2 -32 7 -46 10 -14 3 -43 10 -65 14 -22 5 -51 11 -65 14 -14 3 -45 8 -70
10 -25 3 -56 7 -70 10 -14 3 -52 8 -85 12 -33 3 -73 8 -90 10 -37 6 -551 14
-556 10z"/>
</g>
</svg>
